<?xml version="1.0" encoding="iso-8859-1"?>

<!DOCTYPE svg PUBLIC "-//W3C//DTD SVG 1.1//EN" "http://www.w3.org/Graphics/SVG/1.1/DTD/svg11.dtd">
<!-- Uploaded to: SVG Repo, www.svgrepo.com, Generator: SVG Repo Mixer Tools -->
<svg height="800px" width="800px" version="1.1" id="_x34_" xmlns="http://www.w3.org/2000/svg" xmlns:xlink="http://www.w3.org/1999/xlink" 
	 viewBox="0 0 512 512"  xml:space="preserve">
<g>
	<linearGradient id="SVGID_1_" gradientUnits="userSpaceOnUse" x1="191.9869" y1="169.4764" x2="579.4863" y2="329.1731">
		<stop  offset="0" style="stop-color:#F0F0F0"/>
		<stop  offset="1" style="stop-color:#FFFFFF"/>
	</linearGradient>
	<path style="fill:url(#SVGID_1_);" d="M476.803,274.568h-72.824c51.244-24.467,85.819-78.23,81.939-139.638
		c-2.603-41.2-22.941-77.88-53.323-102.579l0.013-0.013c-8.446-6.834-17.601-12.701-27.336-17.537
		c-16.569-8.188-34.815-13.281-54.028-14.506c-64.343-4.062-120.369,34.106-142.999,89.552c0.005,0.001,0.01,0.002,0.015,0.003
		c-1.639,4.02-3.099,8.127-4.377,12.317c-0.404-0.061-0.819-0.084-1.225-0.14c0.399,0.053,0.806,0.077,1.203,0.133
		c1.29-4.19,2.772-8.317,4.384-12.314c-5.867-1.032-11.992-1.612-18.181-1.612c-57.896,0-104.896,46.935-104.896,104.832
		c0,2.965,0.193,5.931,0.387,8.897c-6.705-1.87-14.055-2.385-21.598-1.289c-23.274,3.546-41.584,23.016-43.712,46.42
		c-0.967,10.444,1.161,20.309,5.545,28.754C10.96,279.975,0,293.643,0,309.762c0,2.128,0.194,4.191,0.58,6.189
		c2.514,14.442,13.99,25.853,28.432,28.432c1.999,0.387,4.062,0.58,6.189,0.58h84.78l0.002-0.002h356.819
		c19.358,0,35.196-15.838,35.196-35.196C512,290.406,496.162,274.568,476.803,274.568z M99.972,219.253l-9.462-2.588l9.46,2.571
		L99.972,219.253z M65.89,213.44c1.999-0.322,3.998-0.451,5.996-0.451c2.215,0,4.453,0.268,6.688,0.665
		c-2.225-0.39-4.466-0.659-6.715-0.659c-1.977,0-3.985,0.154-5.962,0.453c-6.531,0.99-12.554,3.668-17.618,7.552
		C53.34,217.111,59.361,214.432,65.89,213.44z M37.263,269.905l2.192,4.218l-2.189-4.206c-0.166-0.323-0.27-0.671-0.427-0.998
		C36.994,269.243,37.097,269.586,37.263,269.905z M25.795,289.563c-4.653,2.173-8.331,5.891-10.562,10.386
		C17.456,295.443,21.13,291.724,25.795,289.563z M26.874,330.424c-0.113-0.046-0.241-0.062-0.353-0.11
		C26.633,330.362,26.761,330.379,26.874,330.424z M30.701,331.614c1.449,0.297,2.948,0.453,4.484,0.453h97.687l-0.002,0.002H35.202
		C33.66,332.069,32.155,331.912,30.701,331.614z"/>
	<g>
		<path style="fill:#F7EC88;" d="M432.607,32.339L308.176,156.77c-6.254,1.031-12.314,2.772-17.988,5.222
			c-11.476-37.136-43.003-65.31-81.944-72.144C230.874,34.402,286.9-3.766,351.243,0.296c19.213,1.225,37.458,6.318,54.028,14.506
			C415.006,19.637,424.161,25.505,432.607,32.339z"/>
		<linearGradient id="SVGID_2_" gradientUnits="userSpaceOnUse" x1="104.1222" y1="410.8043" x2="104.1222" y2="214.4588">
			<stop  offset="0" style="stop-color:#D2D0CF"/>
			<stop  offset="1" style="stop-color:#FFFFFF"/>
		</linearGradient>
		<path style="fill:url(#SVGID_2_);" d="M208.244,89.848c-1.612,3.997-3.094,8.123-4.384,12.314
			c-4.513-0.645-9.09-1.031-13.797-1.031c-50.74,0-91.937,41.198-91.937,91.937c0,2.643,0.065,5.222,0.323,7.801l1.547,18.375
			l-17.794-4.835c-3.417-0.967-6.898-1.419-10.315-1.419c-1.999,0-3.997,0.129-5.996,0.451
			c-17.407,2.644-31.204,17.278-32.816,34.88c-0.709,7.479,0.774,14.958,4.191,21.598l7.349,14.119l-15.344,4.255
			c-9.671,2.644-16.376,11.476-16.376,21.469c0,12.314,9.993,22.307,22.308,22.307h97.675l-12.894,12.894h-84.78
			c-2.128,0-4.191-0.194-6.19-0.58c-14.442-2.579-25.918-13.99-28.432-28.432C0.194,313.952,0,311.889,0,309.762
			c0-16.118,10.96-29.786,25.789-33.912c-4.384-8.446-6.512-18.31-5.544-28.754c2.127-23.403,20.438-42.874,43.712-46.42
			c7.544-1.096,14.893-0.58,21.598,1.289c-0.194-2.966-0.387-5.932-0.387-8.897c0-57.896,47-104.832,104.896-104.832
			C196.253,88.236,202.378,88.816,208.244,89.848z"/>
		<path style="fill:#EFE748;" d="M277.887,165.784l4.237,13.659l5.892-2.52l20.166-20.166c-6.268,1.042-12.301,2.781-17.978,5.208
			c-11.499-37.078-43.032-65.315-81.936-72.138c-1.643,4.027-3.106,8.143-4.386,12.342
			C238.446,107.334,267.282,131.578,277.887,165.784z"/>
		<linearGradient id="SVGID_3_" gradientUnits="userSpaceOnUse" x1="256.0327" y1="410.8075" x2="256.0327" y2="214.4457">
			<stop  offset="0" style="stop-color:#D2D0CF"/>
			<stop  offset="1" style="stop-color:#FFFFFF"/>
		</linearGradient>
		<path style="fill:url(#SVGID_3_);" d="M277.887,165.784l4.237,13.659l5.892-2.52l20.166-20.166
			c-6.268,1.042-12.301,2.781-17.978,5.208c-11.499-37.078-43.032-65.315-81.936-72.138c-1.643,4.027-3.106,8.143-4.386,12.342
			C238.446,107.334,267.282,131.578,277.887,165.784z"/>
		<linearGradient id="SVGID_4_" gradientUnits="userSpaceOnUse" x1="121.4105" y1="410.8072" x2="121.4105" y2="214.446">
			<stop  offset="0" style="stop-color:#D2D0CF"/>
			<stop  offset="1" style="stop-color:#FFFFFF"/>
		</linearGradient>
		<path style="fill:url(#SVGID_4_);" d="M197.881,153.679c-1.138-18.014,1.075-35.354,6.002-51.51
			c-4.527-0.677-9.143-1.061-13.839-1.061c-50.702,0-91.948,41.252-91.948,91.954c0,2.632,0.12,5.235,0.334,7.81l1.543,18.381
			l-17.793-4.867c-3.375-0.922-6.85-1.391-10.319-1.391c-1.977,0-3.985,0.154-5.962,0.453c-17.428,2.641-31.241,17.295-32.84,34.843
			c-0.693,7.521,0.768,14.994,4.206,21.614l7.335,14.116l-15.325,4.256c-9.652,2.679-16.395,11.516-16.395,21.489
			c0,12.296,10.004,22.301,22.307,22.301h97.687l97.071-97.07C211.585,212.413,199.816,184.303,197.881,153.679z"/>
		<linearGradient id="SVGID_5_" gradientUnits="userSpaceOnUse" x1="207.173" y1="27.5076" x2="157.2073" y2="167.7341">
			<stop  offset="0" style="stop-color:#D2D0CF"/>
			<stop  offset="1" style="stop-color:#FFFFFF"/>
		</linearGradient>
		<path style="opacity:0.3;fill:url(#SVGID_5_);" d="M197.881,153.679c-1.138-18.014,1.075-35.354,6.002-51.51
			c-4.527-0.677-9.143-1.061-13.839-1.061c-50.702,0-91.948,41.252-91.948,91.954c0,2.632,0.12,5.235,0.334,7.81l1.543,18.381
			l-17.793-4.867c-3.375-0.922-6.85-1.391-10.319-1.391c-1.977,0-3.985,0.154-5.962,0.453c-17.428,2.641-31.241,17.295-32.84,34.843
			c-0.693,7.521,0.768,14.994,4.206,21.614l7.335,14.116l-15.325,4.256c-9.652,2.679-16.395,11.516-16.395,21.489
			c0,12.296,10.004,22.301,22.307,22.301h97.687l97.071-97.07C211.585,212.413,199.816,184.303,197.881,153.679z"/>
		<path style="fill:#EFE748;" d="M197.881,153.679c1.935,30.624,13.704,58.734,32.063,81.318l58.073-58.073l-5.892,2.52
			l-4.237-13.659c-10.605-34.206-39.441-58.45-74.004-63.615C198.956,118.325,196.743,135.665,197.881,153.679z"/>
		<linearGradient id="SVGID_6_" gradientUnits="userSpaceOnUse" x1="242.8018" y1="410.8074" x2="242.8018" y2="214.4466">
			<stop  offset="0" style="stop-color:#D2D0CF"/>
			<stop  offset="1" style="stop-color:#FFFFFF"/>
		</linearGradient>
		<path style="fill:url(#SVGID_6_);" d="M197.881,153.679c1.935,30.624,13.704,58.734,32.063,81.318l58.073-58.073l-5.892,2.52
			l-4.237-13.659c-10.605-34.206-39.441-58.45-74.004-63.615C198.956,118.325,196.743,135.665,197.881,153.679z"/>
		<linearGradient id="SVGID_7_" gradientUnits="userSpaceOnUse" x1="12.8778" y1="168.5824" x2="499.1065" y2="168.5824">
			<stop  offset="0" style="stop-color:#D2D0CF"/>
			<stop  offset="1" style="stop-color:#FFFFFF"/>
		</linearGradient>
		<path style="opacity:0.3;fill:url(#SVGID_7_);" d="M197.881,153.679c1.935,30.624,13.704,58.734,32.063,81.318l58.073-58.073
			l-5.892,2.52l-4.237-13.659c-10.605-34.206-39.441-58.45-74.004-63.615C198.956,118.325,196.743,135.665,197.881,153.679z"/>
		<path style="fill:#EFE748;" d="M332.613,156.445c34.823,4.888,62.568,33.173,66.878,68.072
			c2.267,18.36-1.787,35.666-10.267,50.052h14.755c51.244-24.467,85.819-78.23,81.939-139.638
			c-2.603-41.201-22.943-77.882-53.327-102.582L308.182,156.757C316.001,155.456,324.195,155.263,332.613,156.445z"/>
		<path style="fill:#EDEDEC;" d="M512,309.765c0-19.358-15.838-35.196-35.196-35.196h-72.824
			c-11.466,5.474-23.761,9.475-36.655,11.768l-0.663,1.125h110.144c12.296,0,22.301,10.004,22.301,22.304
			c0,12.296-10.004,22.301-22.301,22.301H132.872l-12.894,12.894h356.826C496.162,344.961,512,329.123,512,309.765z"/>
		<path style="fill:#F8F6E7;" d="M399.491,224.517c-4.31-34.9-32.055-63.184-66.878-68.072c-8.418-1.182-16.612-0.988-24.431,0.312
			l-20.166,20.166l7.254-3.102c8.204-3.507,16.93-5.286,25.927-5.286c3.186,0,6.422,0.227,9.62,0.677
			c28.811,4.045,52.308,27.967,55.872,56.885c1.832,14.805-1.133,29.302-8.575,41.926l-10.789,18.314
			c12.894-2.293,25.189-6.294,36.655-11.768h-14.755C397.705,260.183,401.758,242.877,399.491,224.517z"/>
		<linearGradient id="SVGID_8_" gradientUnits="userSpaceOnUse" x1="259.7272" y1="261.0626" x2="525.6741" y2="370.665">
			<stop  offset="0" style="stop-color:#F0F0F0"/>
			<stop  offset="1" style="stop-color:#FFFFFF"/>
		</linearGradient>
		<path style="fill:url(#SVGID_8_);" d="M476.806,287.462H366.662l0.663-1.125l10.789-18.314
			c7.442-12.624,10.408-27.121,8.575-41.926c-3.564-28.918-27.061-52.84-55.872-56.885c-3.198-0.45-6.435-0.677-9.62-0.677
			c-8.997,0-17.724,1.779-25.927,5.286l-7.254,3.102l-58.073,58.073l-97.071,97.07h343.933c12.296,0,22.301-10.005,22.301-22.301
			C499.106,297.467,489.102,287.462,476.806,287.462z"/>
	</g>
</g>
</svg>